<?xml version="1.0" encoding="utf-8"?>
<!-- Generator: Adobe Illustrator 27.8.1, SVG Export Plug-In . SVG Version: 6.00 Build 0)  -->
<svg version="1.1" id="Layer_1" xmlns="http://www.w3.org/2000/svg" xmlns:xlink="http://www.w3.org/1999/xlink" x="0px" y="0px"
	 viewBox="0 0 1920 305.94" style="enable-background:new 0 0 1920 305.94;" xml:space="preserve">
<style type="text/css">
	.st0{fill:#0A0A0A;}
	.st1{fill:url(#SVGID_1_);}
	.st2{fill:url(#SVGID_00000075145525962829525490000013523598400540378542_);}
	.st3{fill:url(#SVGID_00000123426043684041026710000007908886595750419085_);}
	.st4{fill:url(#SVGID_00000068660454236562230840000003941799274984084148_);}
	.st5{fill:url(#SVGID_00000004528081950302993460000004349645940115695543_);}
	.st6{fill:url(#SVGID_00000093152217430702852890000015442662594677215117_);}
</style>
<g>
	<g>
		<path class="st0" d="M1245.04,242.53l-33.34-63.41h-1.31h-43.15v63.41h-59.82V13.4h102.96c30.29,0,53.77,7.03,70.44,21.08
			c16.67,14.06,25,33.83,25,59.33c0,17.22-3.49,32.09-10.46,44.62c-6.98,12.53-17.11,22.28-30.4,29.25l47.72,74.85H1245.04z
			 M1167.24,131.4h43.47c12.2,0,21.62-3.05,28.27-9.15c6.64-6.1,9.97-14.92,9.97-26.48c0-11.11-3.32-19.66-9.97-25.66
			c-6.65-5.99-16.07-8.99-28.27-8.99h-43.47V131.4z"/>
		<path class="st0" d="M1476.78,75.01c14.6,7.52,25.93,18.09,33.99,31.71c8.06,13.62,12.09,29.37,12.09,47.23
			c0,18.09-4.03,33.94-12.09,47.56c-8.06,13.62-19.4,24.19-33.99,31.71c-14.6,7.52-31.49,11.28-50.66,11.28
			c-19.18,0-36.07-3.76-50.66-11.28c-14.6-7.52-25.88-18.09-33.83-31.71c-7.96-13.62-11.93-29.47-11.93-47.56
			c0-17.87,3.97-33.61,11.93-47.23c7.95-13.62,19.23-24.19,33.83-31.71c14.6-7.52,31.49-11.28,50.66-11.28
			C1445.29,63.74,1462.18,67.5,1476.78,75.01z M1398.66,122.9c-6.98,8.06-10.46,18.63-10.46,31.71c0,13.29,3.48,23.97,10.46,32.03
			c6.97,8.06,16.12,12.09,27.46,12.09c11.55,0,20.81-4.03,27.78-12.09c6.97-8.06,10.46-18.74,10.46-32.03
			c0-13.07-3.54-23.64-10.62-31.71c-7.08-8.06-16.29-12.09-27.62-12.09C1414.78,110.81,1405.63,114.84,1398.66,122.9z"/>
		<path class="st0" d="M1632.03,111.79c-10.46,0-18.96,3.98-25.49,11.93c-6.54,7.96-9.81,18.25-9.81,30.89
			c0,12.86,3.27,23.21,9.81,31.05s15.04,11.77,25.49,11.77c16.12,0,27.67-6.64,34.65-19.94L1709.5,202
			c-6.98,13.51-17.44,23.97-31.38,31.38c-13.95,7.41-30.29,11.11-49.03,11.11c-18.09,0-33.99-3.7-47.72-11.11
			c-13.73-7.41-24.35-17.86-31.87-31.38c-7.52-13.51-11.28-29.2-11.28-47.07c0-18.09,3.81-34.04,11.44-47.89
			c7.63-13.84,18.36-24.52,32.2-32.03c13.84-7.52,29.8-11.28,47.88-11.28c17.65,0,33.34,3.65,47.07,10.95
			c13.73,7.3,24.4,17.6,32.03,30.89l-42.16,24.52C1658.4,117.89,1646.85,111.79,1632.03,111.79z"/>
		<path class="st0" d="M1851.36,242.53l-37.26-66.68l-17.98,18.63v48.05h-58.18V0h58.18v125.51l56.55-59.81h66.03l-64.72,68.32
			L1920,242.53H1851.36z"/>
	</g>
	<linearGradient id="SVGID_1_" gradientUnits="userSpaceOnUse" x1="-240.823" y1="243.7256" x2="1245.3976" y2="-390.9015">
		<stop  offset="0" style="stop-color:#2E22AC"/>
		<stop  offset="1" style="stop-color:#E34C9D"/>
	</linearGradient>
	<path class="st1" d="M169.02,34.48c16.12,14.06,24.19,33.83,24.19,59.33c0,27.02-8.06,48-24.19,62.92
		c-16.13,14.93-38.79,22.39-67.99,22.39H60.18v63.41H0.36V13.4h100.67C130.23,13.4,152.9,20.43,169.02,34.48z M126.37,122.25
		c6.64-6.1,9.97-14.92,9.97-26.48c0-11.11-3.32-19.66-9.97-25.66c-6.65-5.99-16.07-8.99-28.27-8.99H60.18v70.28H98.1
		C110.3,131.4,119.72,128.35,126.37,122.25z"/>
	
		<linearGradient id="SVGID_00000183947383213673568430000017425780943088194957_" gradientUnits="userSpaceOnUse" x1="-188.8105" y1="365.5328" x2="1297.4102" y2="-269.0942">
		<stop  offset="0" style="stop-color:#2E22AC"/>
		<stop  offset="1" style="stop-color:#E34C9D"/>
	</linearGradient>
	<path style="fill:url(#SVGID_00000183947383213673568430000017425780943088194957_);" d="M395.21,65.7v176.83h-58.18v-28.76
		c-11.99,20.48-30.84,30.94-56.55,31.38c-19.18,0-34.48-6.15-45.92-18.47c-11.44-12.31-17.16-28.71-17.16-49.19V65.7h58.18v95.12
		c0,10.02,2.56,17.87,7.68,23.53c5.12,5.67,12.04,8.5,20.76,8.5c10.24-0.22,18.3-3.97,24.19-11.28c5.88-7.3,8.83-16.83,8.83-28.6
		V65.7H395.21z"/>
	
		<linearGradient id="SVGID_00000112620221635482061410000000334973773673128126_" gradientUnits="userSpaceOnUse" x1="-163.7588" y1="424.2009" x2="1322.4618" y2="-210.4261">
		<stop  offset="0" style="stop-color:#2E22AC"/>
		<stop  offset="1" style="stop-color:#E34C9D"/>
	</linearGradient>
	<path style="fill:url(#SVGID_00000112620221635482061410000000334973773673128126_);" d="M521.54,71.58
		c9.69-5.44,20.76-8.17,33.18-8.17v53.28c-1.96-0.21-4.9-0.33-8.82-0.33c-13.73,0-24.84,3.22-33.34,9.64
		c-8.5,6.43-13.4,15.2-14.71,26.31v90.21h-58.18V65.7h58.18v29.42C503.94,84.88,511.84,77.03,521.54,71.58z"/>
	
		<linearGradient id="SVGID_00000036952672834912347590000015816943613231206840_" gradientUnits="userSpaceOnUse" x1="-130.3812" y1="502.3671" x2="1355.8394" y2="-132.2599">
		<stop  offset="0" style="stop-color:#2E22AC"/>
		<stop  offset="1" style="stop-color:#E34C9D"/>
	</linearGradient>
	<path style="fill:url(#SVGID_00000036952672834912347590000015816943613231206840_);" d="M735.14,75.01
		c12.42,7.52,22.06,18.2,28.93,32.03c6.87,13.84,10.3,29.8,10.3,47.89c0,17.87-3.32,33.56-9.97,47.07
		c-6.65,13.51-16.13,23.97-28.44,31.38c-12.31,7.41-26.53,11.11-42.65,11.11c-11.11,0-21.2-2.13-30.24-6.37
		c-9.04-4.25-16.73-10.4-23.04-18.47v86.29h-58.18V65.7h58.18v22.88c12.85-16.56,30.18-24.84,51.97-24.84
		C708.34,63.74,722.72,67.5,735.14,75.01z M705.23,185.33c7.08-8.06,10.62-18.63,10.62-31.7c0-13.08-3.54-23.7-10.62-31.87
		c-7.08-8.17-16.29-12.26-27.62-12.26c-11.11,0-20.16,4.08-27.13,12.26c-6.98,8.17-10.46,18.79-10.46,31.87
		c0,13.07,3.48,23.65,10.46,31.7c6.97,8.06,16.02,12.09,27.13,12.09C688.94,197.42,698.15,193.39,705.23,185.33z"/>
	
		<linearGradient id="SVGID_00000070833847700562850530000018357827211905664924_" gradientUnits="userSpaceOnUse" x1="-119.1168" y1="528.747" x2="1367.1038" y2="-105.88">
		<stop  offset="0" style="stop-color:#2E22AC"/>
		<stop  offset="1" style="stop-color:#E34C9D"/>
	</linearGradient>
	<path style="fill:url(#SVGID_00000070833847700562850530000018357827211905664924_);" d="M806.07,0h58.18v242.53h-58.18V0z"/>
	
		<linearGradient id="SVGID_00000163041685363229677630000004350999165728404386_" gradientUnits="userSpaceOnUse" x1="-83.3812" y1="612.4354" x2="1402.8394" y2="-22.1916">
		<stop  offset="0" style="stop-color:#2E22AC"/>
		<stop  offset="1" style="stop-color:#E34C9D"/>
	</linearGradient>
	<path style="fill:url(#SVGID_00000163041685363229677630000004350999165728404386_);" d="M1054.48,89.23
		c15.47,17,23.21,40.32,23.21,69.95c0,4.58-0.11,8.06-0.33,10.46h-122.9c2.83,10.02,7.73,17.71,14.71,23.04
		c6.97,5.34,15.47,8.01,25.5,8.01c7.63,0,14.98-1.52,22.06-4.58c7.08-3.05,13.57-7.52,19.45-13.4l30.4,30.4
		c-9.15,10.24-20.21,18.03-33.18,23.37c-12.97,5.34-27.62,8.01-43.96,8.01c-18.96,0-35.52-3.7-49.68-11.11
		c-14.17-7.41-25-17.86-32.52-31.38c-7.52-13.51-11.28-29.2-11.28-47.07c0-18.09,3.81-34.04,11.44-47.89
		c7.63-13.84,18.41-24.52,32.36-32.03c13.94-7.52,30.07-11.28,48.38-11.28C1016.89,63.74,1039,72.24,1054.48,89.23z M1021.14,138.59
		c0-10.24-3-18.47-8.99-24.68c-6-6.21-13.89-9.31-23.7-9.31c-9.15,0-16.83,3.05-23.04,9.15c-6.21,6.1-10.3,14.38-12.26,24.84
		H1021.14z"/>
</g>
</svg>
